<svg height="512pt" viewBox="0 0 512 512" width="512pt" xmlns="http://www.w3.org/2000/svg"><path d="m158.898438 335.449219c0-97.511719 70.617187 17.652343 158.894531-17.65625 5.277343-2.109375 28.929687-158.507813 34.464843-157.953125-8.421874-89.660156-83.847656-159.839844-175.707031-159.839844-97.507812 0-176.550781 79.042969-176.550781 176.550781 0 91.835938 70.125 167.230469 159.742188 175.707031-.519532-5.535156-.84375-11.132812-.84375-16.808593zm0 0" fill="#6c4127"/><g fill="#be6e41"><path d="m503.171875 317.792969c-27.003906 0-49.238281-20.222657-52.507813-46.335938-30.675781-7.6875-53.421874-35.363281-53.421874-68.421875 0-.539062.070312-1.058594.078124-1.597656-10.300781-3.628906-17.734374-13.339844-17.734374-24.886719 0-4.023437.960937-7.792969 2.570312-11.210937-14.902344-4.078125-30.507812-6.441406-46.707031-6.441406-97.511719 0-176.550781 79.039062-176.550781 176.550781 0 97.507812 79.039062 176.550781 176.550781 176.550781 97.507812 0 176.550781-79.042969 176.550781-176.550781 0-6.179688-.328125-12.289063-.953125-18.300781-2.570313.378906-5.191406.644531-7.875.644531zm0 0"/><path d="m132.414062 238.34375c0 14.628906-11.855468 26.484375-26.484374 26.484375-14.625 0-26.480469-11.855469-26.480469-26.484375 0-14.625 11.855469-26.480469 26.480469-26.480469 14.628906 0 26.484374 11.855469 26.484374 26.480469zm0 0"/><path d="m105.929688 52.964844h35.3125v35.3125h-35.3125zm0 0"/><path d="m247.171875 88.277344h35.3125v35.308594h-35.3125zm0 0"/></g><path d="m167.722656 185.378906c-4.871094 0-8.824218-3.945312-8.824218-8.828125 0-14.601562 11.878906-26.480469 26.480468-26.480469 4.875 0 8.828125 3.945313 8.828125 8.828126 0 4.878906-3.953125 8.824218-8.828125 8.824218-4.871094 0-8.828125 3.957032-8.828125 8.828125 0 4.882813-3.953125 8.828125-8.828125 8.828125zm0 0" fill="#f7e6a1"/><path d="m203.035156 114.757812c-4.875 0-8.828125-3.945312-8.828125-8.828124 0-4.871094-3.953125-8.828126-8.828125-8.828126-4.871094 0-8.828125-3.945312-8.828125-8.824218 0-4.882813 3.957031-8.828125 8.828125-8.828125 14.601563 0 26.484375 11.882812 26.484375 26.480469 0 4.882812-3.957031 8.828124-8.828125 8.828124zm0 0" fill="#f7e6a1"/><path d="m79.449219 150.070312c-4.875 0-8.828125-3.949218-8.828125-8.828124 0-4.875-3.957032-8.828126-8.828125-8.828126-4.871094 0-8.828125-3.945312-8.828125-8.828124 0-4.882813 3.957031-8.828126 8.828125-8.828126 14.601562 0 26.484375 11.882813 26.484375 26.484376 0 4.878906-3.957032 8.828124-8.828125 8.828124zm0 0" fill="#f7e6a1"/><path d="m344.277344 441.378906c0 14.625-11.859375 26.484375-26.484375 26.484375s-26.484375-11.859375-26.484375-26.484375 11.859375-26.480468 26.484375-26.480468 26.484375 11.855468 26.484375 26.480468zm0 0" fill="#6c4127"/><path d="m282.484375 291.308594c0 14.628906-11.859375 26.484375-26.484375 26.484375s-26.484375-11.855469-26.484375-26.484375c0-14.625 11.859375-26.480469 26.484375-26.480469s26.484375 11.855469 26.484375 26.480469zm0 0" fill="#6c4127"/><path d="m344.277344 300.136719h35.308594v35.3125h-35.308594zm0 0" fill="#6c4127"/><path d="m397.242188 450.207031c-4.875 0-8.828126-3.945312-8.828126-8.828125 0-14.601562 11.882813-26.480468 26.484376-26.480468 4.871093 0 8.824218 3.945312 8.824218 8.824218 0 4.882813-3.953125 8.828125-8.824218 8.828125-4.875 0-8.828126 3.957031-8.828126 8.828125 0 4.882813-3.957031 8.828125-8.828124 8.828125zm0 0" fill="#f7e6a1"/><path d="m441.378906 379.585938c-4.871094 0-8.828125-3.945313-8.828125-8.828126 0-4.871093-3.953125-8.828124-8.828125-8.828124-4.871094 0-8.824218-3.945313-8.824218-8.828126 0-4.878906 3.953124-8.824218 8.824218-8.824218 14.601563 0 26.484375 11.878906 26.484375 26.480468 0 4.882813-3.953125 8.828126-8.828125 8.828126zm0 0" fill="#f7e6a1"/><path d="m335.449219 256c-4.875 0-8.828125-3.945312-8.828125-8.828125 0-4.871094-3.957032-8.828125-8.828125-8.828125-4.871094 0-8.828125-3.945312-8.828125-8.828125 0-4.878906 3.957031-8.824219 8.828125-8.824219 14.601562 0 26.484375 11.878906 26.484375 26.480469 0 4.882813-3.957032 8.828125-8.828125 8.828125zm0 0" fill="#f7e6a1"/><path d="m247.171875 406.070312c-4.871094 0-8.828125-3.949218-8.828125-8.828124 0-4.875-3.953125-8.828126-8.828125-8.828126-4.871094 0-8.824219-3.945312-8.824219-8.828124 0-4.882813 3.953125-8.828126 8.824219-8.828126 14.601563 0 26.484375 11.882813 26.484375 26.484376 0 4.878906-3.953125 8.828124-8.828125 8.828124zm0 0" fill="#f7e6a1"/></svg>