<?xml version="1.0" encoding="iso-8859-1"?>
<!-- Generator: Adobe Illustrator 19.0.0, SVG Export Plug-In . SVG Version: 6.00 Build 0)  -->
<svg version="1.1" id="Capa_1" xmlns="http://www.w3.org/2000/svg" xmlns:xlink="http://www.w3.org/1999/xlink" x="0px" y="0px"
	 viewBox="0 0 512 512" style="enable-background:new 0 0 512 512;" xml:space="preserve">
<g>
	<path style="fill:#FFFFFF;" d="M201.443,20.984H38.68c-8.033,0-15.736,3.191-21.416,8.871S8.393,43.238,8.393,51.271v98.902
		c0,8.033,3.191,15.736,8.871,21.416c5.68,5.68,13.384,8.871,21.416,8.871c0,0,12.127-8.393,41.967-8.393
		c27.228-0.164,54.393,2.65,81.009,8.393h39.786c8.033,0,15.736-3.191,21.416-8.871c5.68-5.68,8.871-13.384,8.871-21.416V51.271
		c0-8.033-3.191-15.736-8.871-21.416C217.179,24.174,209.475,20.984,201.443,20.984z"/>
	<path style="fill:#A4C2F7;" d="M464.926,20.984H302.164c-8.033,0-15.736,3.191-21.416,8.871s-8.871,13.384-8.871,21.416v98.902
		c0,8.033,3.191,15.736,8.871,21.416c5.68,5.68,13.384,8.871,21.416,8.871c0,0,12.127-8.393,41.967-8.393
		c27.228-0.164,54.393,2.65,81.009,8.393h39.786c8.033,0,15.736-3.191,21.416-8.871c5.68-5.68,8.871-13.384,8.871-21.416V51.271
		c0-8.033-3.191-15.736-8.871-21.416S472.959,20.984,464.926,20.984z"/>
	
		<linearGradient id="SVGID_1_" gradientUnits="userSpaceOnUse" x1="-48.7088" y1="652.507" x2="-48.0667" y2="650.7498" gradientTransform="matrix(436.459 0 0 -159.4754 21371.0703 104019.4141)">
		<stop  offset="0" style="stop-color:#D4E1F4"/>
		<stop  offset="0.1717" style="stop-color:#D4E1F4"/>
		<stop  offset="0.2" style="stop-color:#D4E1F4"/>
		<stop  offset="0.2001" style="stop-color:#DAE4F4"/>
		<stop  offset="0.2007" style="stop-color:#EBEBF4"/>
		<stop  offset="0.2014" style="stop-color:#F6F1F4"/>
		<stop  offset="0.2023" style="stop-color:#FDF4F4"/>
		<stop  offset="0.205" style="stop-color:#FFF5F4"/>
		<stop  offset="0.2522" style="stop-color:#FFF5F4"/>
		<stop  offset="0.26" style="stop-color:#FFF5F4"/>
		<stop  offset="0.26" style="stop-color:#D4E1F4"/>
		<stop  offset="0.3974" style="stop-color:#D4E1F4"/>
		<stop  offset="0.42" style="stop-color:#D4E1F4"/>
		<stop  offset="0.4201" style="stop-color:#DAE4F4"/>
		<stop  offset="0.4207" style="stop-color:#EBEBF4"/>
		<stop  offset="0.4214" style="stop-color:#F6F1F4"/>
		<stop  offset="0.4223" style="stop-color:#FDF4F4"/>
		<stop  offset="0.425" style="stop-color:#FFF5F4"/>
		<stop  offset="0.4894" style="stop-color:#FFF5F4"/>
		<stop  offset="0.5" style="stop-color:#FFF5F4"/>
		<stop  offset="0.5" style="stop-color:#F9F2F4"/>
		<stop  offset="0.5001" style="stop-color:#E8EBF4"/>
		<stop  offset="0.5003" style="stop-color:#DDE5F4"/>
		<stop  offset="0.5005" style="stop-color:#D6E2F4"/>
		<stop  offset="0.501" style="stop-color:#D4E1F4"/>
		<stop  offset="0.7062" style="stop-color:#D4E1F4"/>
		<stop  offset="0.74" style="stop-color:#D4E1F4"/>
		<stop  offset="0.741" style="stop-color:#FFF5F4"/>
		<stop  offset="0.8346" style="stop-color:#FFF5F4"/>
		<stop  offset="0.85" style="stop-color:#FFF5F4"/>
		<stop  offset="0.851" style="stop-color:#D4E1F4"/>
	</linearGradient>
	<path style="fill:url(#SVGID_1_);" d="M439.746,20.984H63.861c-8.033,0-15.736,3.191-21.416,8.871
		c-5.68,5.68-8.871,13.384-8.871,21.416v98.902c0,8.033,3.191,15.736,8.871,21.416c5.68,5.68,13.384,8.871,21.416,8.871h174.081
		c26.616-5.743,53.781-8.558,81.009-8.393c27.228-0.164,54.393,2.65,81.009,8.393h39.786c8.033,0,15.736-3.191,21.416-8.871
		c5.68-5.68,8.871-13.384,8.871-21.416V51.271c0-8.033-3.191-15.736-8.871-21.416S447.778,20.984,439.746,20.984z"/>
	<circle style="fill:#7FACFA;" cx="88.131" cy="100.721" r="29.377"/>
	<path style="fill:#A4C2F7;" d="M71.615,72.793c0.331,2.481-0.436,4.983-2.101,6.852c-1.665,1.869-4.061,2.92-6.564,2.878v36.268
		c0.896-0.34,1.84-0.532,2.798-0.57c2.471-0.049,4.844,0.971,6.509,2.798c1.666,1.827,2.462,4.283,2.186,6.739
		c11.346-4.792,18.479-16.174,17.846-28.474S83.393,76.395,71.615,72.793L71.615,72.793z"/>
	<path style="fill:#FFFFFF;" d="M201.443,180.459H38.68c-8.033,0-15.736,3.191-21.416,8.871c-5.68,5.68-8.871,13.384-8.871,21.416
		v98.902c0,8.033,3.191,15.736,8.871,21.416c5.68,5.68,13.384,8.871,21.416,8.871c0,0,12.127-8.393,41.967-8.393
		c27.228-0.164,54.393,2.65,81.009,8.393h39.786c8.033,0,15.736-3.191,21.416-8.871c5.68-5.68,8.871-13.384,8.871-21.416v-98.902
		c0-8.033-3.191-15.736-8.871-21.416C217.179,183.65,209.475,180.459,201.443,180.459z"/>
	<path style="fill:#A4C2F7;" d="M464.926,180.459H302.164c-8.033,0-15.736,3.191-21.416,8.871c-5.68,5.68-8.871,13.384-8.871,21.416
		v98.902c0,8.033,3.191,15.736,8.871,21.416c5.68,5.68,13.384,8.871,21.416,8.871c0,0,12.127-8.393,41.967-8.393
		c27.228-0.164,54.393,2.65,81.009,8.393h39.786c8.033,0,15.736-3.191,21.416-8.871c5.68-5.68,8.871-13.384,8.871-21.416v-98.902
		c0-8.033-3.191-15.736-8.871-21.416C480.662,183.65,472.959,180.459,464.926,180.459z"/>
	
		<linearGradient id="SVGID_2_" gradientUnits="userSpaceOnUse" x1="-48.7088" y1="652.507" x2="-48.0667" y2="650.7498" gradientTransform="matrix(436.459 0 0 -159.4754 21371.0703 104178.8906)">
		<stop  offset="0" style="stop-color:#D4E1F4"/>
		<stop  offset="0.1717" style="stop-color:#D4E1F4"/>
		<stop  offset="0.2" style="stop-color:#D4E1F4"/>
		<stop  offset="0.2001" style="stop-color:#DAE4F4"/>
		<stop  offset="0.2007" style="stop-color:#EBEBF4"/>
		<stop  offset="0.2014" style="stop-color:#F6F1F4"/>
		<stop  offset="0.2023" style="stop-color:#FDF4F4"/>
		<stop  offset="0.205" style="stop-color:#FFF5F4"/>
		<stop  offset="0.2522" style="stop-color:#FFF5F4"/>
		<stop  offset="0.26" style="stop-color:#FFF5F4"/>
		<stop  offset="0.26" style="stop-color:#D4E1F4"/>
		<stop  offset="0.3974" style="stop-color:#D4E1F4"/>
		<stop  offset="0.42" style="stop-color:#D4E1F4"/>
		<stop  offset="0.4201" style="stop-color:#DAE4F4"/>
		<stop  offset="0.4207" style="stop-color:#EBEBF4"/>
		<stop  offset="0.4214" style="stop-color:#F6F1F4"/>
		<stop  offset="0.4223" style="stop-color:#FDF4F4"/>
		<stop  offset="0.425" style="stop-color:#FFF5F4"/>
		<stop  offset="0.4894" style="stop-color:#FFF5F4"/>
		<stop  offset="0.5" style="stop-color:#FFF5F4"/>
		<stop  offset="0.5" style="stop-color:#F9F2F4"/>
		<stop  offset="0.5001" style="stop-color:#E8EBF4"/>
		<stop  offset="0.5003" style="stop-color:#DDE5F4"/>
		<stop  offset="0.5005" style="stop-color:#D6E2F4"/>
		<stop  offset="0.501" style="stop-color:#D4E1F4"/>
		<stop  offset="0.7062" style="stop-color:#D4E1F4"/>
		<stop  offset="0.74" style="stop-color:#D4E1F4"/>
		<stop  offset="0.741" style="stop-color:#FFF5F4"/>
		<stop  offset="0.8346" style="stop-color:#FFF5F4"/>
		<stop  offset="0.85" style="stop-color:#FFF5F4"/>
		<stop  offset="0.851" style="stop-color:#D4E1F4"/>
	</linearGradient>
	<path style="fill:url(#SVGID_2_);" d="M439.746,180.459H63.861c-8.033,0-15.736,3.191-21.416,8.871
		c-5.68,5.68-8.871,13.384-8.871,21.416v98.902c0,8.033,3.191,15.736,8.871,21.416c5.68,5.68,13.384,8.871,21.416,8.871h174.081
		c26.616-5.743,53.781-8.558,81.009-8.393c27.228-0.164,54.393,2.65,81.009,8.393h39.786c8.033,0,15.736-3.191,21.416-8.871
		c5.68-5.68,8.871-13.384,8.871-21.416v-98.902c0-8.033-3.191-15.736-8.871-21.416C455.482,183.65,447.778,180.459,439.746,180.459z
		"/>
	<circle style="fill:#7FACFA;" cx="88.131" cy="260.197" r="29.377"/>
	<path style="fill:#A4C2F7;" d="M71.615,232.268c0.331,2.481-0.436,4.983-2.101,6.852c-1.665,1.869-4.061,2.92-6.564,2.878v36.268
		c0.896-0.34,1.84-0.532,2.798-0.57c2.471-0.049,4.844,0.971,6.509,2.798c1.666,1.827,2.462,4.283,2.186,6.739
		c11.346-4.792,18.479-16.174,17.846-28.474C91.657,246.459,83.393,235.871,71.615,232.268L71.615,232.268z"/>
	<g>
		<path style="fill:#428DFF;" d="M88.131,138.492c-20.86,0-37.77-16.91-37.77-37.77s16.91-37.77,37.77-37.77
			s37.77,16.91,37.77,37.77C125.879,121.572,108.982,138.469,88.131,138.492z M88.131,79.738c-11.589,0-20.984,9.395-20.984,20.984
			s9.395,20.984,20.984,20.984s20.984-9.395,20.984-20.984C109.103,89.137,99.715,79.75,88.131,79.738z"/>
		<circle style="fill:#428DFF;" cx="419.672" cy="88.131" r="8.393"/>
		<circle style="fill:#428DFF;" cx="386.098" cy="88.131" r="8.393"/>
		<circle style="fill:#428DFF;" cx="436.459" cy="113.311" r="8.393"/>
		<circle style="fill:#428DFF;" cx="402.885" cy="113.311" r="8.393"/>
		<circle style="fill:#428DFF;" cx="352.525" cy="88.131" r="8.393"/>
		<circle style="fill:#428DFF;" cx="369.311" cy="113.311" r="8.393"/>
		<circle style="fill:#428DFF;" cx="318.951" cy="88.131" r="8.393"/>
		<circle style="fill:#428DFF;" cx="335.738" cy="113.311" r="8.393"/>
		<circle style="fill:#428DFF;" cx="285.377" cy="88.131" r="8.393"/>
		<circle style="fill:#428DFF;" cx="302.164" cy="113.311" r="8.393"/>
		<path style="fill:#428DFF;" d="M464.926,188.852H38.68C17.328,188.828,0.025,171.525,0,150.172V51.271
			c0.025-21.352,17.328-38.656,38.68-38.68h426.246c21.352,0.025,38.656,17.328,38.68,38.68v98.902
			C503.582,171.525,486.279,188.828,464.926,188.852L464.926,188.852z M38.68,29.377c-12.086,0.012-21.881,9.807-21.893,21.893
			v98.902c0.012,12.086,9.807,21.881,21.893,21.893h426.246c12.086-0.012,21.881-9.807,21.893-21.893V51.271
			c-0.012-12.086-9.807-21.881-21.893-21.893H38.68z"/>
		<path style="fill:#428DFF;" d="M88.131,297.967c-20.86,0-37.77-16.91-37.77-37.77c0-20.86,16.91-37.77,37.77-37.77
			s37.77,16.91,37.77,37.77C125.879,281.047,108.982,297.944,88.131,297.967z M88.131,239.213c-11.589,0-20.984,9.395-20.984,20.984
			c0,11.589,9.395,20.984,20.984,20.984s20.984-9.395,20.984-20.984C109.103,248.613,99.715,239.225,88.131,239.213L88.131,239.213z
			"/>
		<path style="fill:#428DFF;" d="M251.803,499.41c-23.178,0-41.967-18.789-41.967-41.967s18.789-41.967,41.967-41.967
			s41.967,18.789,41.967,41.967C293.743,480.609,274.97,499.383,251.803,499.41L251.803,499.41z M251.803,432.262
			c-13.907,0-25.18,11.274-25.18,25.18s11.274,25.18,25.18,25.18s25.18-11.274,25.18-25.18
			C276.968,443.542,265.704,432.277,251.803,432.262L251.803,432.262z"/>
		<circle style="fill:#428DFF;" cx="419.672" cy="247.607" r="8.393"/>
		<circle style="fill:#428DFF;" cx="386.098" cy="247.607" r="8.393"/>
		<circle style="fill:#428DFF;" cx="436.459" cy="272.787" r="8.393"/>
		<circle style="fill:#428DFF;" cx="402.885" cy="272.787" r="8.393"/>
		<circle style="fill:#428DFF;" cx="352.525" cy="247.607" r="8.393"/>
		<circle style="fill:#428DFF;" cx="369.311" cy="272.787" r="8.393"/>
		<circle style="fill:#428DFF;" cx="318.951" cy="247.607" r="8.393"/>
		<circle style="fill:#428DFF;" cx="335.738" cy="272.787" r="8.393"/>
		<circle style="fill:#428DFF;" cx="285.377" cy="247.607" r="8.393"/>
		<circle style="fill:#428DFF;" cx="302.164" cy="272.787" r="8.393"/>
		<path style="fill:#428DFF;" d="M464.926,348.328H38.68C17.328,348.303,0.025,331,0,309.648v-98.902
			c0.025-21.352,17.328-38.656,38.68-38.68h426.246c21.352,0.025,38.656,17.328,38.68,38.68v98.902
			C503.582,331,486.279,348.303,464.926,348.328L464.926,348.328z M38.68,188.852c-12.086,0.012-21.881,9.807-21.893,21.893v98.902
			c0.012,12.086,9.807,21.881,21.893,21.893h426.246c12.086-0.012,21.881-9.807,21.893-21.893v-98.902
			c-0.012-12.086-9.807-21.881-21.893-21.893H38.68z"/>
		<path style="fill:#428DFF;" d="M184.656,465.836H8.393c-4.636,0-8.393-3.758-8.393-8.393s3.758-8.393,8.393-8.393h176.262
			c4.636,0,8.393,3.758,8.393,8.393S189.291,465.836,184.656,465.836z"/>
		<path style="fill:#428DFF;" d="M503.607,465.836H318.951c-4.636,0-8.393-3.758-8.393-8.393s3.758-8.393,8.393-8.393h184.656
			c4.636,0,8.393,3.758,8.393,8.393S508.242,465.836,503.607,465.836z"/>
		<path style="fill:#428DFF;" d="M251.803,415.475c-2.226,0.001-4.362-0.884-5.936-2.458c-1.574-1.574-2.458-3.709-2.458-5.936
			v-50.361c0-4.636,3.758-8.393,8.393-8.393s8.393,3.758,8.393,8.393v50.361c0.001,2.226-0.884,4.361-2.458,5.936
			C256.165,414.592,254.03,415.476,251.803,415.475L251.803,415.475z"/>
	</g>
</g>
<g>
</g>
<g>
</g>
<g>
</g>
<g>
</g>
<g>
</g>
<g>
</g>
<g>
</g>
<g>
</g>
<g>
</g>
<g>
</g>
<g>
</g>
<g>
</g>
<g>
</g>
<g>
</g>
<g>
</g>
</svg>
